# xmcd
#
# Track frame offsets: 
#        150
#        19344
#        38224
#        64467
#        83344
#        99660
#        130284
#        152617
#        170236
#        196345
#        214779
#        235368
#        261558
#        294583
#        311586
#
# Disc length: 4381 seconds
#
# Revision: 1
# Processed by: cddbd v1.5.2PL0 Copyright (c) Steve Scherf et al.
# Submitted via: ExactAudioCopy v1.0b3
#
DISCID=df111b0f
DTITLE=GLAY - THE GREAT VACATION VOL.1 2000-2009 Disc 1 TOCT-26856A-58
DTITLE=A
DYEAR=1900
DGENRE=JPop
TTITLE0=誘惑 (再録) 
TTITLE1=MERMAID 
TTITLE2=Missing You 
TTITLE3=GLOBAL COMMUNICATION 
TTITLE4=STAY TUNED 
TTITLE5=ひとひらの自由 
TTITLE6=Way of Difference
TTITLE7=またここであいましょう 
TTITLE8=逢いたい気持ち 
TTITLE9=いつか 
TTITLE10=BEAUTIFUL DREAMER
TTITLE11=STREET LIFE
TTITLE12=時の雫 
TTITLE13=天使のわけまえ 
TTITLE14=ピーク果てしなく ソウル限りなく 
EXTD=
EXTT0=
EXTT1=
EXTT2=
EXTT3=
EXTT4=
EXTT5=
EXTT6=
EXTT7=
EXTT8=
EXTT9=
EXTT10=
EXTT11=
EXTT12=
EXTT13=
EXTT14=
PLAYORDER=
